<svg xmlns="http://www.w3.org/2000/svg" xmlns:xlink="http://www.w3.org/1999/xlink" version="1.1" x="0px" y="0px" viewBox="0 0 32 32" style="enable-background:new 0 0 32 32;" xml:space="preserve"><g><g><g><g><path d="M16,2L16,2c-2.44,0-4.41,3.3-4.41,8.99c0,6.13,1.81,10.43,3.12,12.75h2.61c1.3-2.31,3.11-6.62,3.11-12.76      C20.42,5.29,18.43,2,16,2z"></path><path d="M12.71,23.74h0.12c-1.34-2.63-2.9-6.92-2.9-12.75c0-3.71,0.79-6.66,2.15-8.5C7.83,3.6,4.8,6.57,4.8,11      c0,6.43,4.37,10.57,7.65,12.77C12.54,23.76,12.62,23.74,12.71,23.74z M19.87,2.48c1.5,2.04,2.2,5.28,2.2,8.51      c0,5.84-1.55,10.13-2.89,12.76h0.12c0.07,0,0.13,0.02,0.2,0.02c3.28-2.23,7.71-6.41,7.71-12.78C27.2,6.54,24.14,3.57,19.87,2.48      z M19.29,25.39h-6.59c-0.73,0-1.32,0.59-1.32,1.32v1.98c0,0.73,0.59,1.32,1.32,1.32h6.59c0.73,0,1.32-0.59,1.32-1.32v-1.98      C20.61,25.98,20.02,25.39,19.29,25.39z"></path></g></g></g></g></svg>